<svg width="128.000000" height="31.000000" viewBox="0 0 128 31" fill="none" xmlns="http://www.w3.org/2000/svg" xmlns:xlink="http://www.w3.org/1999/xlink">
	<desc>
			Created with Pixso.
	</desc>
	<defs/>
	<path id="ADVUP" d="M41.3 20.68L39.9 25L35.61 25L42.14 6.09L47.29 6.09L53.81 25L49.52 25L48.12 20.68L41.3 20.68ZM72.04 15.52C72.04 21.43 68.55 25 62.79 25L56.08 25L56.08 6.09L62.84 6.09C68.55 6.09 72.04 9.63 72.04 15.52ZM72.9 6.09L77.35 6.09L81.92 20.45L82.09 20.45L86.67 6.09L91.1 6.09L84.58 25L79.43 25L72.9 6.09ZM60.08 9.51L60.08 21.57L62.62 21.57C66.18 21.57 68.05 19.74 68.05 15.52C68.05 11.32 66.18 9.51 62.63 9.51L60.08 9.51ZM44.64 10.41L42.31 17.56L47.12 17.56L44.79 10.41L44.64 10.41Z" fill="#000000" fill-opacity="1.000000" fill-rule="evenodd"/>
	<path id="ADVUP" d="M105.06 18.03L105.06 6.09L109.05 6.09L109.05 18.37C109.05 22.5 105.91 25.26 101.22 25.26C96.5 25.26 93.38 22.5 93.38 18.37L93.38 6.09L97.37 6.09L97.37 18.03C97.37 20.18 98.9 21.75 101.22 21.75C103.54 21.75 105.06 20.18 105.06 18.03ZM116.34 25L112.34 25L112.34 6.09L119.8 6.09C124.1 6.09 126.58 8.74 126.58 12.5C126.58 16.27 124.05 18.86 119.7 18.86L116.34 18.86L116.34 25ZM116.34 9.35L116.34 15.66L119.05 15.66C121.34 15.66 122.46 14.37 122.46 12.5C122.46 10.61 121.34 9.35 119.03 9.35L116.34 9.35Z" fill="#FF3F62" fill-opacity="1.000000" fill-rule="evenodd"/>
	<circle id="Ellipse 1" cx="6.727295" cy="23.090912" r="4.727273" fill="#000000" fill-opacity="1.000000"/>
	<circle id="Ellipse 2" cx="17.363525" cy="25.454544" r="3.545455" fill="#000000" fill-opacity="1.000000"/>
	<circle id="Ellipse 3" cx="5.545410" cy="12.454544" r="3.545455" fill="#000000" fill-opacity="1.000000"/>
	<circle id="Ellipse 4" cx="11.454590" cy="6.545456" r="2.363636" fill="#000000" fill-opacity="1.000000"/>
	<circle id="Ellipse 5" cx="24.454590" cy="20.727264" r="2.363636" fill="#000000" fill-opacity="1.000000"/>
	<path id="Vector 2" d="M15.59 18.36L28 13.04L19.72 3L12.63 15.4L15.59 18.36Z" fill="#FF3F62" fill-opacity="1.000000" fill-rule="evenodd"/>
</svg>
